<?xml version="1.0" standalone="no"?>
<!DOCTYPE svg PUBLIC "-//W3C//DTD SVG 20010904//EN"
 "http://www.w3.org/TR/2001/REC-SVG-20010904/DTD/svg10.dtd">
<svg version="1.0" xmlns="http://www.w3.org/2000/svg"
 width="1680.000000pt" height="1017.000000pt" viewBox="0 0 1680.000000 1017.000000"
 preserveAspectRatio="xMidYMid meet">
<metadata>
Created by potrace 1.12, written by Peter Selinger 2001-2015
</metadata>
<g transform="translate(0.000000,1017.000000) scale(0.100000,-0.100000)"
fill="#000000" stroke="none">
<path d="M0 5085 l0 -5085 8400 0 8400 0 0 5085 0 5085 -8400 0 -8400 0 0
-5085z m3383 3376 c147 -32 317 -187 381 -345 34 -86 45 -225 27 -355 -13 -99
-23 -136 -59 -211 -115 -241 -282 -408 -547 -550 -38 -21 -87 -47 -108 -59
-21 -11 -42 -21 -47 -21 -5 0 -33 -11 -62 -24 -71 -32 -140 -56 -160 -56 -27
0 -32 -20 -11 -40 20 -18 146 -80 164 -80 5 0 17 -4 27 -9 47 -25 105 -34 174
-27 70 6 72 6 53 -11 -11 -10 -33 -25 -49 -33 -16 -8 -45 -35 -64 -60 -20 -25
-39 -49 -44 -54 -4 -5 -14 -4 -23 4 -11 9 -19 10 -26 3 -8 -8 -5 -15 11 -23
12 -6 19 -17 17 -25 -3 -7 0 -18 6 -24 9 -9 13 -274 15 -1054 l2 -1042 28 -3
c23 -2 43 12 118 85 50 48 102 103 115 122 34 51 34 21 0 -49 -25 -49 -156
-238 -181 -260 -3 -3 -41 -48 -85 -100 -44 -52 -105 -122 -136 -155 -31 -33
-70 -76 -85 -95 -16 -19 -57 -64 -91 -99 l-63 -63 -20 23 c-10 13 -19 28 -20
32 -1 26 -140 154 -216 198 -36 22 -69 39 -73 39 -3 0 -14 7 -24 14 -16 13
-14 16 30 42 75 43 172 141 206 209 l30 60 -2 1162 c-2 996 -4 1167 -17 1192
-24 47 -39 56 -82 43 -20 -6 -72 -14 -115 -17 -80 -8 -80 -8 -138 -75 -12 -14
-42 -56 -67 -95 -25 -38 -48 -72 -51 -75 -12 -10 -117 -155 -139 -191 -41 -67
-44 -67 -111 4 -56 58 -158 126 -281 188 -80 39 -257 48 -410 19 -25 -4 -47
-7 -49 -5 -4 5 25 35 33 35 3 0 37 23 76 50 39 28 73 50 76 50 7 0 113 90 154
130 61 60 175 226 212 311 15 33 27 36 49 12 8 -10 32 -31 54 -48 21 -16 52
-42 69 -56 35 -28 173 -117 224 -143 27 -14 49 -16 105 -12 40 3 106 8 147 11
76 6 168 24 250 49 25 8 70 20 100 27 30 7 60 16 65 20 6 3 23 9 39 13 15 4
47 15 70 25 22 11 48 22 56 25 8 4 24 12 35 19 11 7 61 36 110 66 78 47 158
103 175 122 3 3 21 15 40 26 19 12 48 35 64 52 17 17 35 31 42 31 7 0 18 8 23
18 9 16 11 15 26 -6 22 -30 41 -18 21 13 -15 23 -14 26 27 75 96 118 117 146
117 158 0 6 4 12 8 12 8 0 42 70 75 155 53 137 46 319 -17 444 -38 75 -145
179 -221 215 -22 10 -48 23 -57 27 -10 5 -26 9 -37 9 -27 0 -51 10 -51 22 0 6
11 8 28 4 15 -4 44 -11 65 -15z m11069 -514 c31 -7 60 -16 64 -20 4 -4 15 -7
25 -7 54 0 241 -106 332 -188 87 -79 163 -178 224 -292 70 -132 93 -289 63
-427 -13 -57 -54 -145 -77 -164 -12 -11 -11 -4 6 28 11 23 21 51 21 62 0 11 5
23 10 26 16 10 12 253 -5 301 -47 137 -114 249 -202 340 -96 99 -207 172 -338
224 -122 48 -404 62 -525 25 -80 -24 -177 -74 -249 -129 -49 -37 -135 -138
-149 -176 -3 -8 -15 -31 -27 -50 -31 -52 -83 -198 -116 -324 -10 -39 -20 -80
-23 -91 -20 -73 -71 -293 -83 -355 -7 -41 -21 -111 -29 -155 -9 -44 -20 -105
-25 -135 -10 -58 -16 -87 -44 -235 -9 -49 -21 -117 -26 -150 -5 -33 -11 -72
-15 -87 l-6 -28 226 0 c230 0 245 -3 211 -36 -19 -20 -19 -39 0 -58 13 -13 20
-13 48 -1 18 8 30 20 28 27 -4 14 -3 60 2 64 9 10 736 18 745 9 5 -4 43 -153
49 -190 3 -16 9 -34 13 -40 14 -18 22 -165 9 -165 -6 0 -9 6 -6 13 8 20 -21
53 -34 40 -9 -9 -7 -25 5 -64 13 -39 14 -54 6 -59 -8 -5 -9 -14 -3 -26 10 -22
10 -45 0 -61 -4 -6 -3 -14 3 -18 5 -3 10 -16 10 -28 1 -19 2 -20 10 -6 5 9 8
37 6 63 -2 26 1 49 5 52 5 3 9 2 9 -3 11 -197 -1 -508 -21 -527 -5 -6 -9 -29
-9 -52 0 -24 -4 -45 -9 -48 -4 -3 -11 -28 -15 -56 -4 -28 -11 -61 -15 -73 -5
-12 -14 -47 -21 -77 -13 -62 -37 -145 -50 -175 -5 -11 -27 -75 -50 -141 -22
-67 -51 -143 -65 -170 -14 -27 -25 -52 -25 -56 0 -4 -12 -33 -26 -64 -14 -31
-23 -62 -20 -69 3 -8 24 -24 48 -36 23 -12 88 -53 143 -91 55 -38 195 -132
310 -209 116 -77 272 -188 347 -247 76 -59 173 -134 215 -167 43 -33 98 -77
123 -98 25 -21 50 -41 55 -45 12 -8 134 -111 153 -129 22 -21 139 -84 194
-104 62 -22 175 -25 228 -6 87 32 210 116 210 143 0 4 6 15 14 23 56 63 86
204 65 296 -25 103 -58 147 -138 181 -56 24 -165 14 -224 -20 -55 -33 -63 -18
-14 28 31 29 127 66 172 66 41 0 132 -33 161 -58 69 -60 104 -156 104 -275 -2
-176 -90 -308 -287 -432 -58 -36 -106 -65 -108 -65 -5 0 -177 -78 -197 -90
-10 -6 -27 -10 -38 -10 -11 0 -20 -4 -20 -10 0 -5 -5 -10 -12 -10 -19 0 -177
-79 -249 -125 -36 -24 -82 -62 -102 -86 -41 -50 -26 -57 -123 56 -92 107 -415
420 -579 560 -32 28 -74 64 -94 81 -20 17 -110 90 -201 162 -91 73 -170 136
-175 140 -6 5 -24 17 -40 28 -29 18 -44 30 -87 66 -12 10 -24 18 -27 18 -3 0
-22 14 -41 30 -19 17 -51 42 -71 56 l-36 25 -109 -108 c-184 -182 -341 -322
-434 -388 -30 -22 -61 -45 -68 -52 -7 -7 -17 -13 -21 -13 -4 0 -16 -8 -27 -18
-19 -18 -173 -122 -181 -122 -2 0 -39 -22 -81 -48 -82 -51 -221 -135 -287
-172 -131 -75 -673 -340 -694 -340 -6 0 -11 -4 -11 -9 0 -5 -11 -12 -25 -15
-14 -4 -55 -20 -91 -36 -35 -17 -67 -30 -70 -30 -3 0 -30 -11 -60 -25 -30 -14
-58 -25 -62 -25 -4 0 -59 -22 -122 -48 -63 -26 -142 -56 -175 -67 -33 -10 -78
-26 -100 -35 -22 -10 -51 -21 -65 -25 -14 -4 -29 -11 -35 -14 -5 -4 -30 -13
-55 -20 -25 -7 -74 -23 -110 -36 -119 -42 -163 -55 -191 -55 -15 0 -30 -4 -33
-9 -3 -5 -23 -11 -43 -14 -21 -3 -74 -12 -118 -21 -150 -31 -260 -41 -450 -40
-248 0 -472 20 -623 54 -23 6 -55 10 -70 10 -15 0 -32 4 -37 8 -6 5 -57 17
-115 26 -58 10 -121 21 -140 26 -160 40 -413 73 -580 74 -148 1 -411 -28 -473
-53 -41 -16 -77 -14 -77 4 0 8 7 15 15 15 8 0 23 4 33 9 9 5 28 14 42 20 52
22 250 36 520 35 292 0 271 2 700 -69 186 -30 383 -59 530 -77 118 -15 423
-15 510 -1 87 14 203 39 270 57 30 9 87 23 125 32 39 9 78 20 88 25 10 6 57
23 105 39 128 43 169 58 247 92 210 90 528 242 570 272 17 12 57 35 90 51 33
16 93 50 134 77 41 26 75 48 77 48 3 0 44 26 92 57 48 32 92 60 97 62 6 2 12
7 15 11 3 4 32 25 65 46 33 21 96 65 141 98 45 34 128 95 185 136 56 41 112
84 123 95 12 11 30 27 42 35 62 44 360 323 462 433 110 119 122 132 122 138 0
3 11 19 24 34 13 15 30 39 37 52 12 22 11 27 -11 44 -50 39 -272 143 -385 180
-33 11 -68 24 -77 30 -10 5 -29 9 -43 9 -14 0 -25 4 -25 8 0 9 -125 42 -162
42 -15 0 -30 4 -33 10 -3 6 -27 10 -53 10 l-47 0 -48 -99 c-96 -200 -192 -350
-288 -451 -36 -39 -53 -51 -56 -40 -12 43 -51 105 -78 125 -40 30 -168 69
-260 80 -27 3 -53 9 -58 14 -4 4 9 21 30 37 21 16 51 44 68 63 16 19 36 40 43
47 6 7 12 15 12 19 0 3 17 32 37 63 44 69 163 302 163 320 0 7 4 20 9 30 5 9
21 55 34 102 14 47 34 117 45 155 23 79 48 183 56 235 3 19 12 73 21 120 9 47
21 105 25 130 5 25 17 83 26 130 9 47 20 108 24 135 5 28 16 93 25 145 9 52
19 123 22 157 l6 61 -59 8 c-107 13 -384 -8 -489 -37 -80 -22 -251 -82 -280
-98 -55 -30 -110 -68 -124 -85 -7 -9 -17 -16 -22 -16 -5 0 -9 108 -9 239 l0
239 505 4 c444 3 506 5 520 19 20 20 41 111 50 214 3 44 10 100 15 125 5 25
14 79 20 120 7 41 18 111 26 155 8 44 19 107 25 140 13 77 38 191 50 231 5 17
9 37 9 44 0 15 33 108 77 220 39 98 101 221 123 247 11 13 20 34 20 48 0 16 6
25 15 25 8 0 15 3 15 8 0 7 71 52 150 96 325 178 574 270 845 311 104 16 295
17 367 2z m-8082 -722 l5 -160 155 -2 c150 -3 343 16 398 38 18 7 44 -1 128
-41 96 -47 126 -70 89 -70 -8 0 -47 -32 -87 -70 l-73 -71 -299 -4 c-203 -4
-304 -9 -313 -17 -10 -8 -13 -37 -11 -117 l3 -106 159 -3 c144 -2 165 0 240
22 55 17 111 26 176 28 l95 3 -1 -75 c-1 -41 -5 -268 -9 -505 -4 -236 -10
-434 -14 -438 -5 -4 -64 -11 -132 -14 l-124 -5 -40 28 c-38 28 -45 29 -170 32
-74 1 -136 -2 -145 -7 -23 -16 -28 -182 -5 -204 15 -15 58 -17 431 -17 228 0
414 -3 413 -7 -1 -10 -188 -181 -210 -193 -9 -5 -54 -5 -105 0 -49 5 -182 10
-295 10 -180 0 -208 -2 -220 -17 -9 -10 -15 -48 -17 -102 -4 -96 -19 -139 -66
-189 -43 -46 -82 -68 -162 -93 -64 -20 -83 -21 -269 -15 -212 6 -261 14 -415
66 -86 28 -131 53 -119 64 2 2 38 -5 79 -16 63 -16 100 -18 225 -15 190 5 238
19 312 90 53 51 54 53 60 124 5 62 3 73 -11 79 -9 3 -205 1 -436 -5 -414 -11
-448 -10 -470 18 -3 4 -30 24 -60 46 -65 46 -123 104 -157 158 -25 40 -25 40
-7 81 23 50 75 136 83 136 3 0 6 -26 7 -59 2 -85 27 -130 89 -160 l50 -24 385
2 c375 1 506 10 522 35 4 6 8 53 8 104 0 79 -3 94 -17 100 -10 4 -69 7 -131 7
l-113 0 -32 -36 c-18 -20 -41 -40 -52 -44 -25 -9 -267 -34 -277 -28 -5 2 -8
195 -8 429 0 485 3 468 -90 559 -28 27 -50 53 -50 58 0 5 26 6 58 3 31 -3 167
-10 302 -16 250 -11 384 -7 407 12 17 14 18 179 1 196 -23 23 -341 7 -461 -23
-21 -6 -28 -3 -33 11 -24 77 -63 147 -121 220 -18 23 -33 46 -33 53 0 6 -4 11
-10 11 -15 0 -12 30 3 31 20 2 41 -1 62 -10 104 -45 201 -61 355 -60 179 1
221 9 239 41 16 27 15 31 -16 141 -4 14 1 17 35 17 l40 0 7 68 c4 37 9 71 12
75 2 4 59 6 126 5 l122 -3 5 -160z m-2059 -46 c73 -84 193 -160 309 -197 83
-26 179 -24 330 7 50 10 65 5 36 -13 -30 -18 -119 -89 -146 -116 -58 -60 -95
-133 -115 -230 -15 -76 -16 -159 -8 -1004 4 -506 8 -979 8 -1051 -1 -140 -13
-262 -26 -271 -5 -3 -9 -12 -9 -21 0 -26 -48 -116 -83 -154 -17 -20 -42 -49
-55 -65 -29 -38 -236 -262 -242 -263 -3 -1 -23 34 -45 76 -57 110 -179 251
-249 289 l-29 16 51 29 c28 16 55 29 60 29 17 0 92 87 110 130 18 41 20 74 23
375 3 382 -10 1774 -17 1823 -4 24 -17 41 -52 67 -26 19 -52 35 -58 35 -6 0
-43 16 -83 36 -91 46 -104 43 -112 -21 -3 -28 -6 -468 -7 -980 -3 -1074 -9
-1517 -22 -1665 -17 -195 -76 -356 -169 -463 -66 -75 -170 -177 -215 -212
l-38 -29 28 -23 c16 -13 35 -23 42 -23 13 0 27 -6 117 -45 128 -58 342 -165
406 -206 44 -27 81 -49 85 -49 3 0 17 -9 31 -20 17 -13 34 -18 46 -14 25 8
124 65 201 116 40 26 66 37 80 33 15 -5 17 -4 8 3 -11 7 -6 15 20 33 18 13 35
26 38 29 33 41 334 260 358 260 6 0 12 4 14 9 4 12 126 84 168 100 19 7 45 18
58 24 14 7 26 7 32 1 6 -6 -24 -31 -87 -69 -53 -33 -102 -62 -107 -64 -6 -2
-13 -7 -16 -11 -3 -3 -22 -16 -43 -29 -20 -12 -54 -37 -75 -54 -21 -18 -58
-48 -82 -67 -212 -171 -418 -377 -538 -540 -31 -41 -59 -77 -62 -80 -3 -3 -31
-41 -61 -85 -30 -44 -57 -82 -61 -85 -4 -3 -33 -55 -64 -115 -31 -61 -58 -112
-60 -114 -3 -3 -140 104 -154 120 -14 17 -354 251 -405 279 -33 18 -64 36 -70
40 -5 4 -26 17 -45 27 -19 11 -62 35 -95 53 -115 65 -271 138 -370 173 -38 14
-83 30 -100 37 -16 7 -39 16 -50 21 -53 21 -259 76 -370 98 -27 5 -75 15 -105
22 -64 13 -399 6 -470 -9 -25 -6 -76 -17 -115 -26 -93 -21 -233 -71 -314 -113
-36 -18 -71 -33 -77 -33 -7 0 -14 -3 -16 -7 -1 -5 -21 -17 -43 -28 -166 -82
-360 -257 -471 -426 -35 -54 -64 -100 -64 -103 0 -2 -14 -34 -30 -69 -17 -36
-30 -68 -30 -72 0 -3 -11 -30 -24 -58 -34 -76 -55 -188 -58 -310 -1 -59 -5
-107 -9 -107 -13 0 -19 63 -19 194 0 131 14 232 45 336 9 30 19 66 22 80 10
42 122 249 183 339 32 47 92 119 134 160 143 138 255 275 381 466 66 100 185
317 185 337 0 5 9 27 20 51 29 63 100 288 100 319 0 15 4 29 9 32 5 3 11 23
14 43 3 21 14 99 26 173 39 256 44 346 42 685 -2 254 -5 333 -15 343 -11 11
-30 5 -112 -33 -54 -26 -112 -53 -129 -60 -46 -21 -146 -53 -190 -60 -22 -4
-55 -11 -72 -17 -38 -11 -124 4 -188 32 -54 24 -125 77 -124 93 0 9 2 9 6 0 2
-7 11 -13 19 -13 8 0 14 -4 14 -8 0 -5 19 -17 43 -28 34 -15 64 -19 152 -19
100 1 116 4 170 29 134 64 260 162 354 274 57 69 171 222 171 230 0 4 13 22
28 40 l28 34 289 -146 c159 -80 293 -150 298 -155 9 -9 -55 -100 -75 -109 -5
-2 -8 -10 -8 -18 0 -8 -4 -14 -8 -14 -20 0 -75 -140 -92 -235 -23 -127 -29
-175 -40 -345 -6 -96 -18 -215 -25 -265 -32 -201 -36 -223 -81 -370 -14 -44
-29 -96 -35 -115 -17 -56 -63 -165 -71 -168 -5 -2 -8 -9 -8 -16 0 -12 -77
-146 -90 -156 -3 -3 -19 -23 -36 -45 -90 -121 -219 -237 -327 -291 -40 -21
-87 -64 -87 -81 0 -15 16 -17 25 -3 3 5 38 19 78 31 40 11 77 25 82 29 11 9
235 82 300 98 99 25 144 34 200 44 82 13 255 30 340 31 116 3 394 -12 413 -21
9 -5 53 -13 97 -17 43 -4 89 -11 101 -15 12 -5 42 -12 65 -15 24 -4 66 -11 93
-16 74 -14 113 -3 160 46 74 76 87 113 97 265 17 269 25 772 34 2105 4 534 9
972 12 975 2 3 75 6 160 7 211 2 332 13 341 28 4 8 37 46 74 87 85 93 174 202
205 251 13 20 27 37 32 37 4 0 28 -23 52 -51z m4079 -170 c5 -217 13 -255 52
-263 58 -12 82 -13 126 -5 52 10 162 58 162 71 0 4 7 8 15 8 8 0 15 4 15 9 0
5 9 11 20 14 15 4 24 -2 34 -21 8 -15 23 -36 33 -47 10 -11 37 -45 60 -75 22
-30 50 -65 62 -77 21 -22 28 -43 14 -43 -5 0 -26 -16 -48 -35 -22 -20 -50 -38
-62 -41 -13 -4 -23 -10 -23 -14 0 -9 -40 -25 -52 -22 -5 1 -8 -1 -8 -6 0 -22
-252 -82 -347 -82 -19 0 -33 -5 -33 -12 0 -33 221 -203 318 -244 23 -10 42
-22 42 -26 0 -5 7 -8 15 -8 8 0 15 -7 15 -15 0 -15 -98 -65 -127 -65 -8 0 -77
-64 -154 -142 -77 -79 -171 -175 -210 -214 -38 -38 -69 -77 -69 -85 0 -8 15
-20 33 -28 17 -8 52 -23 77 -34 47 -21 157 -54 295 -88 78 -20 219 -60 280
-81 129 -44 243 -132 286 -223 32 -69 39 -222 13 -308 -20 -65 -92 -155 -147
-183 -51 -27 -134 -45 -159 -34 -18 7 -19 9 -5 9 36 2 126 52 166 94 63 65 84
117 85 213 0 69 -4 87 -26 125 -31 53 -49 70 -108 100 -114 59 -267 -3 -312
-127 -12 -35 -4 -35 -123 7 -33 11 -69 23 -80 26 -93 24 -353 168 -460 254
-68 55 -105 71 -125 55 -35 -30 -187 -107 -239 -122 -31 -8 -65 -19 -76 -24
-29 -12 -104 -31 -145 -36 -19 -3 -82 -14 -140 -25 -187 -34 -470 -59 -470
-41 0 5 21 13 48 17 48 7 181 41 217 55 11 5 45 17 75 27 187 61 520 278 520
338 0 6 -47 61 -105 122 -75 79 -119 118 -157 136 -29 14 -69 32 -88 42 -35
16 -34 16 55 10 49 -4 112 -13 140 -20 70 -19 306 -102 329 -116 21 -12 32 -3
109 93 21 26 44 53 50 60 7 7 28 34 47 61 24 34 31 50 23 58 -7 7 -52 9 -134
5 -68 -4 -227 -10 -354 -14 -126 -4 -236 -10 -244 -12 -15 -6 -36 27 -73 120
-39 95 -42 111 -27 121 8 5 226 9 485 9 l471 0 20 23 c27 29 68 96 77 125 7
22 6 22 -71 22 -100 0 -166 20 -205 62 -49 52 -56 81 -63 258 -5 123 -11 169
-21 180 -29 29 -316 29 -334 0 -4 -7 -5 -58 -3 -114 3 -58 0 -139 -7 -190 -12
-83 -15 -91 -54 -130 -34 -34 -143 -97 -221 -127 -86 -34 -214 -57 -235 -44
-7 4 19 39 62 83 74 77 111 139 126 209 4 21 5 162 2 313 -4 151 -4 279 0 283
4 4 55 14 113 21 105 12 127 9 127 -18 0 -6 8 -21 18 -32 l17 -21 185 18 c201
20 270 29 400 54 116 22 183 33 195 30 6 -1 12 -82 15 -206z m2836 -332 c27
-40 54 -79 59 -88 6 -9 24 -36 42 -60 18 -24 47 -64 65 -89 18 -25 67 -81 109
-125 42 -43 75 -84 73 -90 -3 -6 -13 -15 -24 -20 -47 -25 -150 -87 -162 -98
-7 -7 -38 -32 -70 -55 -57 -42 -246 -218 -324 -302 -126 -136 -190 -211 -225
-262 -22 -32 -61 -83 -88 -115 -46 -56 -175 -223 -264 -343 -22 -30 -44 -57
-47 -60 -4 -3 -80 -108 -170 -235 -90 -126 -167 -232 -170 -235 -3 -3 -25 -36
-50 -75 -25 -38 -47 -72 -50 -75 -3 -3 -68 -99 -145 -215 -77 -115 -143 -212
-146 -215 -4 -3 -26 -36 -49 -75 -23 -38 -46 -72 -50 -75 -4 -3 -22 -30 -40
-60 -19 -30 -57 -92 -87 -136 -29 -45 -53 -86 -53 -91 0 -6 19 -15 43 -21 127
-33 207 -38 798 -48 399 -7 455 -4 634 39 145 35 177 73 294 352 5 11 21 45
35 76 14 31 26 63 26 70 0 8 4 19 8 25 5 5 17 36 26 69 18 63 33 107 46 140 4
11 15 40 23 65 83 252 100 315 117 457 13 99 17 113 39 113 39 -1 51 -24 51
-103 0 -42 -4 -79 -10 -82 -5 -3 -10 -19 -10 -35 0 -16 -14 -86 -30 -157 -28
-116 -45 -195 -72 -323 -5 -25 -13 -103 -18 -175 -5 -71 -12 -155 -14 -185 -5
-54 9 -186 24 -225 4 -11 14 -36 21 -55 19 -50 98 -122 173 -159 52 -25 77
-31 131 -31 93 0 150 17 180 52 29 35 31 53 9 110 -20 51 -79 116 -149 165
l-50 34 40 -7 c94 -16 203 -98 252 -191 51 -95 65 -150 66 -261 0 -118 -15
-171 -56 -189 -82 -38 -111 -46 -192 -54 -271 -26 -1491 -38 -1958 -19 -354
14 -419 30 -500 120 -36 40 -51 69 -74 140 -15 49 -33 90 -40 90 -9 0 -106
-80 -133 -111 -3 -3 -23 -18 -45 -35 -22 -16 -45 -33 -51 -39 -29 -25 -62 -53
-99 -80 -22 -17 -53 -42 -70 -56 -42 -38 -397 -304 -423 -318 -11 -6 -26 -17
-34 -24 -22 -21 -168 -117 -178 -117 -6 0 -10 -4 -10 -10 0 -5 -4 -10 -9 -10
-8 0 -127 -76 -161 -103 -8 -7 -40 -25 -70 -41 -30 -16 -97 -56 -148 -88 -51
-32 -95 -58 -98 -58 -2 0 -21 -11 -42 -23 -20 -13 -80 -47 -132 -74 -52 -28
-117 -63 -145 -78 -27 -15 -95 -50 -150 -77 -55 -27 -117 -58 -138 -68 -22
-11 -43 -20 -48 -20 -5 0 -32 -11 -59 -24 -27 -13 -76 -32 -107 -42 -32 -9
-62 -21 -68 -24 -15 -12 -259 -74 -395 -101 -30 -6 -66 -15 -80 -20 -42 -14
-417 -20 -560 -10 -118 9 -184 18 -340 47 -102 18 -308 83 -420 131 -69 29
-245 117 -256 127 -29 27 -52 43 -90 63 -50 26 -92 62 -204 173 -94 94 -112
115 -135 159 -29 58 -20 52 46 -28 47 -57 146 -157 185 -186 22 -16 49 -40 60
-52 12 -13 28 -23 37 -23 9 0 20 -6 24 -14 4 -7 22 -20 39 -29 17 -9 36 -23
43 -31 8 -9 21 -16 30 -16 9 0 32 -10 51 -23 19 -13 51 -29 70 -37 19 -7 49
-18 65 -25 17 -7 50 -20 75 -30 80 -31 90 -35 113 -44 33 -14 123 -38 207 -56
41 -9 93 -20 115 -25 180 -41 696 -48 761 -11 10 6 60 15 109 21 143 17 164
21 176 36 6 8 18 14 27 14 17 0 150 44 197 65 56 25 130 57 150 65 69 28 173
74 190 83 11 6 63 33 115 60 52 28 112 61 132 74 21 12 40 23 42 23 18 0 516
325 536 349 3 3 32 26 65 51 33 25 62 47 65 50 3 3 34 29 70 59 94 79 235 219
256 255 9 17 21 33 24 36 4 3 20 25 35 50 15 25 31 47 34 50 3 3 42 59 86 125
44 66 84 125 88 130 5 6 48 73 97 150 49 77 94 145 99 152 6 7 11 15 11 18 0
3 5 11 10 18 6 7 57 82 113 167 56 85 110 166 120 180 10 14 85 122 167 240
83 118 155 221 161 228 6 7 33 50 61 95 28 45 54 84 57 87 5 4 67 95 96 141
20 32 49 74 70 100 11 14 27 36 35 49 8 12 24 34 35 48 11 15 47 67 81 117 33
49 99 146 146 215 47 69 119 175 160 235 41 61 103 151 138 200 35 50 84 119
108 155 25 36 50 70 56 75 6 6 24 28 41 50 16 22 33 45 37 50 15 18 69 90 91
119 12 16 36 45 53 65 100 117 103 115 -144 107 -115 -4 -224 -11 -243 -16
-19 -6 -54 -10 -80 -10 -25 0 -72 -4 -105 -10 -32 -5 -102 -17 -154 -26 -84
-13 -228 -51 -285 -74 -11 -4 -69 -27 -130 -50 -60 -24 -122 -51 -137 -61 -14
-11 -31 -19 -36 -19 -6 0 -12 -3 -14 -7 -1 -5 -24 -22 -50 -40 l-47 -32 -10
32 c-10 33 -25 282 -26 422 0 79 0 80 25 79 28 -2 484 15 570 21 30 2 294 7
585 11 l530 7 52 25 c45 21 131 88 167 129 6 7 14 12 17 13 3 0 28 -33 55 -73z
m4327 -554 c-39 -61 -162 -179 -279 -268 -129 -98 -331 -337 -361 -427 -9 -29
-30 -20 -47 20 -9 20 -30 62 -47 92 -18 30 -43 77 -56 104 -24 48 -60 101 -95
140 -10 11 -18 23 -18 26 0 4 -11 20 -25 36 -14 16 -25 32 -25 35 0 3 -9 16
-20 29 -11 13 -20 27 -20 32 0 4 42 9 93 10 161 3 200 5 302 12 55 4 116 11
135 16 19 5 66 17 104 25 38 9 80 21 95 27 14 6 42 17 61 25 44 18 168 81 195
100 26 18 31 1 8 -34z m-14789 -49 c19 -49 2 -64 -69 -64 -38 0 -47 -5 -69
-32 -30 -40 -50 -100 -65 -195 -9 -59 -8 -82 4 -129 26 -100 79 -174 160 -219
45 -26 60 -29 145 -29 58 -1 108 4 130 13 80 31 106 45 132 69 15 14 30 23 33
20 8 -8 -45 -68 -69 -79 -12 -5 -28 -13 -36 -18 -73 -43 -229 -67 -278 -42 -9
4 -38 18 -63 29 -86 38 -152 112 -177 197 -20 73 -23 180 -6 263 31 154 91
230 180 231 29 1 44 -4 48 -15z m7241 -1041 c88 -85 86 -83 197 -166 145 -107
191 -164 145 -180 -7 -2 -85 1 -175 6 -187 11 -279 3 -642 -58 -52 -9 -111
-20 -131 -26 -20 -5 -51 -9 -68 -9 -67 0 -71 -7 -71 -143 0 -67 -1 -133 0
-146 0 -53 6 -54 240 -48 330 10 505 26 725 66 70 13 172 48 224 77 41 23 61
24 61 3 0 -13 37 -55 104 -118 180 -170 177 -167 170 -197 -12 -52 -21 -56
-98 -49 -87 8 -246 8 -900 1 -280 -4 -512 -9 -517 -12 -15 -9 -11 -190 5 -203
9 -8 162 -11 528 -11 l516 0 76 24 c69 23 78 24 103 11 16 -8 38 -15 51 -15
12 0 30 -4 40 -9 9 -5 42 -21 72 -35 30 -15 63 -33 74 -41 17 -13 16 -16 -20
-53 -22 -21 -58 -59 -82 -85 -40 -43 -45 -45 -75 -36 -81 25 -230 30 -752 29
-302 -1 -552 -3 -553 -5 -2 -2 -6 -83 -8 -181 -3 -97 -8 -182 -12 -188 -4 -6
-10 -45 -13 -86 -7 -86 -30 -210 -40 -210 -4 0 -10 -10 -13 -22 -10 -38 -70
-95 -152 -146 -77 -47 -96 -57 -199 -102 -27 -12 -60 -27 -72 -33 -13 -6 -24
-8 -25 -6 -2 2 -12 22 -23 44 -26 54 -81 132 -125 176 -38 39 -182 139 -199
139 -6 0 -19 4 -29 9 -24 14 -114 38 -207 56 -52 11 -91 25 -113 42 -37 28
-62 76 -55 104 5 18 7 17 34 -5 56 -48 204 -74 467 -83 119 -4 151 -2 188 12
60 23 90 66 109 154 17 82 21 306 5 316 -18 11 -980 6 -1065 -6 -133 -17 -247
-40 -312 -61 -34 -11 -67 -17 -72 -14 -6 4 0 33 15 73 27 71 26 129 -2 157 -8
8 -14 17 -14 21 0 3 -18 30 -40 60 -22 30 -40 57 -40 60 0 8 35 6 46 -3 9 -8
78 -30 160 -51 26 -7 210 -11 498 -11 287 0 464 -4 476 -10 11 -6 21 -6 24 -1
4 5 74 10 158 10 92 1 157 6 165 13 9 7 13 40 13 109 0 92 -1 98 -22 105 -13
4 -196 5 -408 3 -212 -2 -455 -3 -540 -4 l-155 0 -13 75 c-7 41 -17 84 -22 95
-17 37 -42 136 -36 143 6 5 30 -4 98 -39 46 -23 179 -30 600 -31 537 -1 498
-10 498 117 0 46 5 87 10 90 6 3 10 13 10 22 0 14 -13 15 -97 10 -410 -25
-519 -29 -733 -22 -129 3 -260 8 -290 10 -30 2 -192 6 -360 10 -265 6 -313 5
-366 -9 -34 -9 -70 -16 -80 -16 -16 0 -16 1 2 15 10 8 27 15 37 15 9 0 17 4
17 8 0 13 243 45 475 63 108 8 217 20 430 50 39 5 99 13 135 18 134 16 564 83
573 88 5 3 26 7 46 10 20 2 47 8 61 13 14 5 48 11 75 15 96 12 235 44 475 110
52 14 118 30 145 35 108 22 164 36 171 43 4 4 18 7 30 7 24 0 314 93 343 110
9 5 20 10 25 10 5 0 46 -35 91 -77z"/>
<path d="M1946 6814 c-9 -22 -8 -24 9 -24 8 0 15 9 15 20 0 24 -15 27 -24 4z"/>
<path d="M2908 6579 c3 -20 10 -29 23 -29 30 0 21 40 -12 52 -12 5 -14 0 -11
-23z"/>
<path d="M2780 6054 c0 -9 7 -14 17 -12 25 5 28 28 4 28 -12 0 -21 -6 -21 -16z"/>
<path d="M2890 5935 c0 -8 4 -15 9 -15 5 0 11 7 15 15 3 9 0 15 -9 15 -8 0
-15 -7 -15 -15z"/>
<path d="M2937 5833 c-4 -3 -7 -13 -7 -21 0 -12 3 -12 15 -2 8 7 15 16 15 21
0 11 -14 12 -23 2z"/>
<path d="M2943 5245 c-18 -20 -16 -32 7 -38 20 -5 28 7 10 18 -5 3 -7 12 -3
20 7 19 2 18 -14 0z"/>
<path d="M2905 4841 c-8 -15 3 -31 21 -31 9 0 14 7 12 17 -4 20 -24 28 -33 14z"/>
<path d="M2693 4556 c-13 -6 -23 -18 -23 -28 0 -15 14 -18 61 -9 15 2 16 40 2
45 -8 3 -15 5 -16 5 -1 -1 -12 -6 -24 -13z"/>
<path d="M2666 4465 c4 -8 10 -15 16 -15 5 0 8 -6 7 -12 -3 -29 2 -46 15 -51
10 -4 13 -1 9 8 -3 8 2 18 11 21 36 14 6 64 -38 64 -18 0 -24 -4 -20 -15z"/>
<path d="M2937 4383 c-26 -7 -15 -27 15 -31 19 -2 27 2 31 17 5 22 -5 25 -46
14z"/>
<path d="M14420 5865 c0 -25 11 -30 53 -27 9 1 17 -3 17 -8 0 -6 4 -10 10 -10
5 0 7 7 4 15 -4 9 -19 15 -41 15 -30 0 -34 3 -28 20 4 11 2 20 -4 20 -6 0 -11
-11 -11 -25z"/>
<path d="M14450 5815 c1 -20 28 -45 50 -45 18 0 22 -4 18 -25 -4 -19 -1 -25
13 -25 16 0 16 2 2 40 -15 37 -25 44 -59 39 -4 0 -11 5 -15 13 -5 7 -9 9 -9 3z"/>
<path d="M13885 5723 c-5 -20 -2 -31 11 -40 16 -11 13 -13 -22 -13 -21 0 -100
-2 -174 -4 -74 -2 -217 -4 -317 -5 -181 -1 -183 -1 -187 -23 -3 -13 -15 -72
-27 -133 -12 -60 -28 -141 -36 -180 -7 -38 -18 -88 -22 -110 -12 -59 -52 -217
-61 -240 -5 -11 -16 -51 -25 -90 -9 -38 -21 -78 -26 -87 -5 -10 -9 -26 -9 -36
0 -20 -33 -118 -43 -129 -4 -3 -7 -17 -7 -30 0 -13 -4 -31 -9 -41 -11 -19 -36
-101 -46 -149 l-7 -33 47 0 c46 0 75 -4 290 -36 104 -15 200 -40 325 -86 30
-11 64 -22 75 -25 11 -3 48 -19 81 -34 34 -16 68 -29 76 -29 8 0 28 36 47 88
19 48 41 101 48 117 28 60 77 232 108 380 9 44 20 96 25 115 42 166 66 560 44
748 l-5 52 -39 0 c-31 0 -38 3 -34 15 4 8 -1 17 -10 21 -9 3 -16 15 -16 25 0
32 -46 25 -55 -8z"/>
<path d="M13708 5723 c-10 -2 -18 -14 -18 -26 0 -16 3 -18 12 -9 7 7 20 12 30
12 10 0 18 7 18 15 0 15 -9 17 -42 8z"/>
<path d="M13796 5721 c-4 -5 3 -15 15 -21 28 -15 34 -7 10 14 -12 11 -21 13
-25 7z"/>
<path d="M14535 5678 c-4 -10 -4 -26 0 -35 8 -17 8 -17 12 0 3 9 3 25 0 35 -4
16 -4 16 -12 0z"/>
<path d="M15540 2691 c0 -5 6 -11 12 -13 7 -3 13 -11 14 -19 0 -8 2 -32 3 -54
2 -35 3 -37 11 -17 5 12 16 25 25 28 8 4 15 12 15 19 0 7 6 15 13 18 9 3 9 9
2 22 -11 18 -95 33 -95 16z"/>
<path d="M6135 6460 c-15 -5 -15 -7 -1 -19 12 -10 23 -10 51 -1 19 6 35 15 35
20 0 9 -59 9 -85 0z"/>
<path d="M5756 6434 c-3 -9 -6 -63 -6 -120 0 -90 2 -106 18 -112 22 -9 131 -8
203 2 71 11 79 25 79 145 0 72 -3 90 -16 95 -9 3 -73 6 -144 6 -107 0 -129 -3
-134 -16z"/>
<path d="M6420 6424 c-6 -15 -9 -68 -8 -118 l3 -91 128 -3 c114 -2 128 -1 134
15 4 10 7 63 8 118 l0 100 -128 3 -127 3 -10 -27z"/>
<path d="M6272 6311 c2 -7 7 -12 11 -12 12 1 9 15 -3 20 -7 2 -11 -2 -8 -8z"/>
<path d="M6406 6048 c-20 -28 -23 -197 -4 -216 8 -8 51 -12 128 -12 99 0 119
3 132 18 18 20 31 173 17 209 -8 22 -12 23 -133 23 -118 0 -126 -1 -140 -22z"/>
<path d="M5778 6049 c-15 -9 -18 -26 -18 -119 l0 -110 130 0 130 0 11 28 c15
36 4 192 -13 204 -19 11 -220 9 -240 -3z"/>
<path d="M3488 6308 c-6 -34 2 -58 18 -58 11 0 14 9 12 37 -3 41 -23 56 -30
21z"/>
<path d="M1953 5602 c-26 -16 -36 -82 -12 -82 4 0 6 6 3 14 -3 9 5 21 20 31
14 10 26 24 26 31 0 15 -18 18 -37 6z"/>
<path d="M1606 5482 c-3 -5 1 -17 8 -27 7 -10 15 -14 19 -9 3 5 -1 17 -8 27
-7 10 -16 14 -19 9z"/>
<path d="M1490 5415 c0 -8 7 -15 16 -15 14 0 14 3 4 15 -7 8 -14 15 -16 15 -2
0 -4 -7 -4 -15z"/>
<path d="M4250 4987 c0 -27 36 -74 48 -62 4 3 0 10 -7 14 -7 5 -11 13 -7 19 3
5 -3 20 -14 32 l-20 23 0 -26z"/>
<path d="M3780 4835 c0 -9 -9 -15 -24 -15 -17 0 -25 -7 -28 -24 -3 -14 -1 -31
3 -38 6 -9 9 -9 9 -1 0 6 10 13 23 15 15 2 22 10 22 25 0 11 3 25 8 29 10 11
9 24 -3 24 -5 0 -10 -7 -10 -15z"/>
<path d="M3686 4805 c-3 -9 0 -15 9 -15 8 0 15 7 15 15 0 8 -4 15 -9 15 -5 0
-11 -7 -15 -15z"/>
<path d="M1660 3940 c0 -11 7 -20 15 -20 8 0 15 6 15 14 0 8 -7 16 -15 20 -10
4 -15 -1 -15 -14z"/>
<path d="M3500 3645 c0 -8 5 -15 10 -15 6 0 10 7 10 15 0 8 -4 15 -10 15 -5 0
-10 -7 -10 -15z"/>
<path d="M3540 3634 c0 -10 28 -34 39 -34 15 0 14 9 -3 26 -15 14 -36 19 -36
8z"/>
<path d="M3447 3617 c-2 -6 -6 -16 -8 -21 -2 -5 6 -10 18 -11 13 -1 32 -10 43
-20 20 -18 20 -18 20 6 0 32 -10 45 -41 52 -17 5 -29 2 -32 -6z"/>
<path d="M3326 3254 c-19 -11 -25 -19 -18 -26 12 -12 28 -4 42 23 13 23 13 22
-24 3z"/>
<path d="M3330 3150 c-20 -16 -21 -20 -8 -20 10 0 22 9 28 20 13 25 11 25 -20
0z"/>
<path d="M2830 3074 c0 -14 3 -14 15 -4 8 7 15 14 15 16 0 2 -7 4 -15 4 -8 0
-15 -7 -15 -16z"/>
<path d="M3996 2503 c-11 -11 -6 -23 9 -23 8 0 15 4 15 9 0 13 -16 22 -24 14z"/>
<path d="M8340 6910 c0 -11 6 -20 14 -20 9 0 12 7 9 20 -3 11 -9 20 -14 20 -5
0 -9 -9 -9 -20z"/>
<path d="M8120 6885 c0 -9 5 -15 11 -13 6 2 11 8 11 13 0 5 -5 11 -11 13 -6 2
-11 -4 -11 -13z"/>
<path d="M8384 5894 c3 -8 6 -18 6 -20 0 -2 5 -4 10 -4 16 0 11 27 -6 34 -12
5 -15 2 -10 -10z"/>
<path d="M8367 5794 c-8 -8 1 -24 14 -24 5 0 9 7 9 15 0 15 -12 20 -23 9z"/>
<path d="M8286 5424 c-20 -19 -20 -24 -1 -24 8 0 19 9 25 20 13 24 -2 27 -24
4z"/>
<path d="M10480 5441 c0 -5 6 -12 13 -14 9 -4 8 -8 -3 -17 -13 -10 -13 -11 0
-7 21 5 26 47 6 47 -9 0 -16 -4 -16 -9z"/>
<path d="M9870 4746 c0 -9 7 -16 16 -16 17 0 14 22 -4 28 -7 2 -12 -3 -12 -12z"/>
<path d="M11576 3062 c-3 -6 3 -12 15 -15 12 -3 19 -1 16 6 -5 15 -24 20 -31
9z"/>
<path d="M7865 4914 c-14 -22 -15 -28 -4 -35 10 -6 15 -3 18 9 4 21 22 33 39
27 6 -2 12 2 12 10 0 26 -46 18 -65 -11z"/>
<path d="M7370 4785 c0 -8 5 -15 10 -15 6 0 10 7 10 15 0 8 -4 15 -10 15 -5 0
-10 -7 -10 -15z"/>
<path d="M6750 4706 c0 -15 8 -35 17 -44 15 -16 16 -15 10 18 -10 46 -27 63
-27 26z"/>
<path d="M7100 4655 c-10 -12 -10 -15 4 -15 9 0 16 7 16 15 0 8 -2 15 -4 15
-2 0 -9 -7 -16 -15z"/>
<path d="M7000 4468 c0 -19 2 -20 10 -8 13 19 13 30 0 30 -5 0 -10 -10 -10
-22z"/>
<path d="M5767 4215 c-4 -8 -2 -17 3 -20 6 -4 10 -4 10 -1 0 2 3 11 6 20 3 9
2 16 -4 16 -5 0 -12 -7 -15 -15z"/>
<path d="M6530 4200 c0 -11 7 -20 15 -20 8 0 15 6 15 14 0 8 -7 16 -15 20 -10
4 -15 -1 -15 -14z"/>
<path d="M6410 4171 c0 -14 6 -19 20 -18 11 1 20 4 20 7 0 3 -9 11 -20 18 -17
11 -20 10 -20 -7z"/>
<path d="M6812 4169 c2 -12 13 -26 26 -30 l23 -9 -18 30 c-20 35 -36 39 -31 9z"/>
<path d="M6530 4145 c0 -8 7 -15 16 -15 14 0 14 3 4 15 -7 8 -14 15 -16 15 -2
0 -4 -7 -4 -15z"/>
<path d="M7080 3253 c0 -5 5 -15 10 -23 8 -12 10 -11 10 8 0 12 -4 22 -10 22
-5 0 -10 -3 -10 -7z"/>
<path d="M7112 3130 c-14 -22 -16 -40 -4 -40 13 0 34 42 25 51 -5 5 -14 0 -21
-11z"/>
<path d="M6749 3109 c-9 -45 -8 -49 9 -49 10 0 23 -5 30 -12 16 -16 29 -1 16
19 -10 16 -53 49 -55 42z"/>
<path d="M6805 3019 c-4 -6 -5 -13 -2 -16 7 -7 27 6 27 18 0 12 -17 12 -25 -2z"/>
</g>
</svg>
