<?xml version="1.0" standalone="no"?>
<!DOCTYPE svg PUBLIC "-//W3C//DTD SVG 20010904//EN"
 "http://www.w3.org/TR/2001/REC-SVG-20010904/DTD/svg10.dtd">
<svg version="1.0" xmlns="http://www.w3.org/2000/svg"
 width="1864.941290pt" height="797.221709pt" viewBox="0 0 1864.941290 797.221709"
 preserveAspectRatio="xMidYMid meet">
<metadata>
Created by potrace 1.12, written by Peter Selinger 2001-2015
</metadata>
<g transform="translate(-77.000171,877.603533) scale(0.100000,-0.100000)"
fill="#000000" stroke="none">
<path d="M4115 8770 c-3 -4 12 -11 32 -15 106 -20 237 -106 324 -216 58 -72
85 -129 105 -227 46 -223 -39 -493 -221 -701 -78 -88 -91 -109 -76 -124 6 -6
11 -20 11 -32 -1 -19 -1 -19 -19 3 -27 31 -22 33 -101 -36 -92 -80 -280 -208
-455 -310 -49 -28 -200 -95 -240 -105 -11 -3 -63 -18 -115 -32 -192 -54 -305
-76 -445 -84 -77 -5 -147 -12 -157 -16 -18 -7 -58 11 -178 85 -92 56 -252 175
-290 215 -13 14 -28 25 -34 25 -6 0 -38 -48 -71 -107 -120 -213 -225 -326
-457 -485 -81 -56 -145 -105 -143 -108 3 -4 24 -3 47 2 24 4 95 14 159 20 192
18 276 -4 494 -130 65 -38 110 -74 162 -130 l73 -77 20 25 c12 14 37 50 57 80
20 30 64 91 98 135 34 44 78 106 99 139 43 67 136 186 146 186 4 0 45 6 91 14
201 34 204 34 236 -27 15 -30 16 -116 25 -1982 1 -148 -1 -382 -3 -520 l-4
-250 -32 -60 c-37 -70 -151 -186 -236 -240 -32 -20 -57 -38 -55 -40 2 -1 39
-22 83 -45 44 -23 100 -57 125 -75 62 -46 151 -141 184 -197 15 -27 31 -48 35
-48 11 0 292 305 401 435 36 42 86 100 111 129 26 28 66 79 90 112 24 34 65
90 91 125 47 65 94 166 83 178 -4 3 -16 -8 -27 -24 -12 -17 -70 -79 -130 -138
-98 -97 -113 -108 -141 -105 l-32 3 -3 1110 c-1 611 -6 1169 -12 1240 -8 114
-11 132 -29 144 -31 20 -26 34 12 27 29 -5 34 -2 62 40 18 26 56 63 93 87 34
23 62 45 62 50 0 4 -38 6 -84 3 -76 -6 -92 -3 -169 24 -171 60 -274 118 -251
140 5 5 38 18 74 30 187 62 346 140 565 278 225 142 445 429 509 663 65 238
36 499 -72 648 -64 88 -166 184 -242 227 -83 47 -222 85 -235 64z m-1555
-1930 c0 -11 -7 -20 -15 -20 -17 0 -18 2 -9 24 9 23 24 20 24 -4z m1128 -252
c17 -17 15 -48 -3 -48 -8 0 -15 3 -15 8 0 4 -3 17 -6 30 -7 24 5 29 24 10z
m-140 -620 c-7 -19 -38 -22 -38 -4 0 10 9 16 21 16 12 0 19 -5 17 -12z m162
-273 c0 -8 -7 -15 -15 -15 -9 0 -12 6 -9 15 4 8 10 15 15 15 5 0 9 -7 9 -15z
m4 -701 c4 -10 1 -14 -6 -12 -15 5 -23 28 -10 28 5 0 13 -7 16 -16z m-35 -453
c7 -5 11 -14 7 -19 -9 -15 -36 -4 -36 14 0 16 9 18 29 5z m-221 -338 c-2 -22
-9 -29 -31 -31 -16 -2 -36 -1 -45 3 -14 6 -12 10 13 31 42 33 67 32 63 -3z
m-16 -90 c23 -21 23 -38 -3 -64 -16 -16 -23 -18 -35 -8 -8 6 -12 20 -9 29 3 9
-1 23 -10 30 -8 7 -12 16 -9 21 9 15 46 10 66 -8z m296 -110 c-3 -13 -12 -17
-32 -16 -16 1 -31 5 -34 8 -9 9 20 25 46 25 17 0 22 -5 20 -17z"/>
<path d="M16690 8165 c-284 -36 -642 -166 -977 -355 -165 -94 -221 -135 -229
-168 -4 -15 -14 -36 -24 -47 -28 -33 -132 -257 -175 -376 -50 -142 -61 -182
-95 -344 -40 -186 -102 -566 -130 -785 -20 -155 -39 -229 -63 -243 -17 -9
-156 -12 -597 -12 -316 0 -581 -4 -588 -9 -18 -11 -14 -536 4 -543 7 -2 36 14
65 36 100 76 278 149 467 191 193 42 581 50 601 12 10 -19 -33 -297 -99 -632
-22 -113 -53 -279 -71 -369 -54 -287 -144 -579 -232 -756 -122 -246 -234 -406
-327 -468 -35 -24 -18 -34 90 -52 119 -20 226 -57 272 -95 20 -17 45 -53 59
-84 13 -31 29 -56 35 -56 26 0 199 224 269 350 27 47 74 137 106 200 32 63 63
121 70 129 8 9 25 12 53 8 98 -13 175 -30 250 -54 192 -61 264 -86 303 -104
24 -10 46 -19 50 -19 16 0 270 -131 297 -153 39 -32 32 -53 -51 -153 -38 -44
-86 -102 -107 -128 -42 -49 -343 -339 -461 -442 -123 -108 -259 -217 -360
-289 -54 -38 -136 -98 -181 -133 -46 -34 -104 -75 -128 -90 -25 -15 -89 -57
-143 -93 -123 -83 -399 -253 -438 -270 -17 -7 -54 -28 -84 -47 -47 -29 -151
-81 -416 -207 -172 -82 -343 -153 -499 -207 -92 -32 -173 -61 -179 -65 -6 -3
-27 -9 -46 -13 -20 -4 -97 -23 -171 -43 -125 -33 -191 -47 -376 -78 -131 -22
-489 -15 -629 11 -27 5 -147 24 -265 41 -118 16 -291 43 -385 60 -93 16 -224
36 -290 45 -158 22 -615 31 -750 15 -55 -7 -137 -16 -181 -22 -124 -15 -265
-79 -172 -79 18 0 51 5 73 11 52 14 117 24 293 44 261 30 525 9 977 -79 72
-14 159 -32 195 -41 285 -64 650 -106 923 -105 164 0 372 25 557 67 63 14 135
30 159 34 57 12 322 98 471 154 63 24 138 50 165 58 49 14 189 69 270 106 22
10 60 26 85 34 82 28 245 97 405 172 55 26 134 62 175 80 146 63 588 293 720
375 21 13 118 69 160 93 19 11 54 32 77 48 23 16 44 29 48 29 15 0 276 179
420 289 98 74 289 246 445 399 110 109 149 141 161 135 51 -25 592 -443 779
-602 306 -259 697 -634 817 -784 30 -37 58 -67 63 -67 5 0 24 18 42 41 62 77
270 196 533 305 196 81 324 152 442 246 76 60 110 102 159 196 36 71 37 77 42
200 4 101 1 137 -12 175 -42 123 -92 179 -188 208 -89 27 -163 22 -244 -17
-53 -27 -105 -76 -92 -89 3 -3 31 8 63 25 50 26 67 30 141 30 129 0 198 -41
246 -145 20 -43 23 -66 22 -161 0 -127 -14 -174 -76 -266 -47 -68 -78 -96
-161 -142 -93 -52 -167 -70 -253 -63 -73 7 -93 12 -174 51 -89 42 -148 83
-289 201 -79 66 -174 143 -210 170 -36 28 -120 93 -186 146 -248 196 -365 278
-872 612 -88 59 -164 107 -168 107 -16 0 -65 42 -65 56 0 8 27 79 61 156 136
315 206 549 305 1013 23 111 30 515 8 515 -10 0 -14 -12 -14 -37 0 -37 0 -38
-13 -13 -8 15 -12 54 -11 100 1 47 -4 93 -14 122 -14 40 -14 48 -2 63 13 16
15 16 27 -1 7 -10 13 -26 13 -36 0 -10 5 -18 11 -18 7 0 9 14 5 43 -4 23 -9
67 -12 97 -3 30 -10 59 -15 64 -5 6 -9 19 -9 31 0 37 -50 219 -63 227 -6 5
-59 7 -117 5 -58 -3 -242 -7 -409 -11 -168 -3 -314 -9 -324 -12 -17 -5 -19
-13 -14 -49 6 -42 6 -42 -33 -55 -32 -11 -42 -11 -55 0 -21 17 -19 42 6 71 19
22 19 24 2 30 -10 4 -127 8 -260 8 -133 1 -244 4 -246 9 -5 7 22 183 49 317 8
44 19 103 24 130 71 400 111 588 200 940 129 508 287 717 630 831 79 26 96 28
240 28 200 0 319 -25 470 -96 249 -118 432 -318 527 -575 49 -134 48 -332 -1
-455 -14 -34 -24 -64 -21 -66 8 -8 55 78 76 140 18 51 22 87 23 188 1 116 -1
132 -33 228 -35 107 -97 220 -183 332 -154 199 -423 359 -659 390 -100 13
-252 11 -379 -5z m458 -2441 c35 -7 26 -21 -13 -20 -40 2 -68 21 -32 23 12 1
32 -1 45 -3z m40 -76 c2 -13 -3 -14 -30 -9 -18 4 -34 14 -36 23 -2 13 3 14 30
9 18 -4 34 -14 36 -23z m22 -54 c0 -8 -7 -14 -15 -14 -17 0 -18 2 -9 24 7 18
24 12 24 -10z m-708 1 c7 -9 18 -21 24 -29 7 -7 13 -21 16 -32 2 -14 13 -20
45 -22 l42 -3 5 -52 c29 -290 5 -595 -80 -997 -35 -164 -100 -406 -114 -425
-4 -5 -29 -64 -55 -130 -26 -66 -51 -124 -56 -130 -10 -10 -27 -4 -179 59
-113 46 -320 111 -395 124 -210 37 -261 44 -360 50 -95 6 -110 9 -113 25 -3
17 26 120 84 293 25 74 103 356 148 531 29 115 75 325 110 511 13 68 25 125
27 126 5 4 628 17 742 16 48 -1 77 3 77 9 0 6 -5 11 -10 11 -17 0 -22 24 -11
53 12 30 34 35 53 12z m-212 -31 c0 -10 -6 -14 -14 -11 -8 3 -20 -1 -26 -9
-17 -20 -30 -18 -30 5 0 18 13 25 58 30 6 0 12 -6 12 -15z m940 -59 c0 -26
-14 -33 -25 -15 -9 14 1 40 15 40 5 0 10 -11 10 -25z m1230 -3455 c10 0 20 -7
23 -14 8 -19 -19 -72 -40 -80 -19 -8 -42 20 -43 51 0 12 -4 25 -10 28 -22 14
-9 27 21 21 17 -3 39 -6 49 -6z"/>
<path d="M7402 7508 c-5 -7 -13 -42 -17 -78 -9 -78 -17 -90 -61 -90 -38 0 -51
-14 -34 -35 7 -8 15 -44 17 -79 5 -55 3 -66 -16 -85 -20 -20 -30 -21 -259 -21
-252 0 -284 4 -421 59 -101 41 -105 16 -18 -105 75 -105 110 -165 127 -216 6
-21 15 -40 20 -43 5 -3 48 1 97 10 48 8 165 19 258 24 220 13 219 13 223 -116
2 -77 0 -93 -17 -114 l-19 -24 -324 2 c-178 1 -367 7 -420 14 -138 16 -142 12
-71 -64 109 -117 103 -81 103 -651 0 -305 4 -497 10 -501 11 -7 212 11 289 26
44 9 61 19 96 57 l42 45 137 1 c91 0 140 -4 148 -12 14 -14 15 -229 0 -244
-19 -19 -145 -27 -531 -33 -541 -9 -610 1 -658 95 -17 33 -23 61 -23 112 0 50
-4 68 -13 68 -8 0 -35 -42 -62 -94 -36 -71 -46 -100 -41 -120 11 -46 108 -148
216 -230 l105 -78 170 6 c94 4 247 8 340 10 94 2 238 7 321 11 190 10 197 7
190 -73 -7 -89 -16 -114 -60 -160 -83 -87 -188 -117 -406 -116 -125 0 -170 5
-235 22 -89 24 -120 15 -59 -16 47 -24 202 -77 264 -91 86 -19 244 -31 399
-32 126 0 170 4 226 19 102 29 125 39 172 78 73 60 94 108 108 245 7 68 18
126 26 135 12 15 42 16 309 10 162 -3 320 -8 351 -12 l56 -5 123 112 c96 89
119 114 106 121 -8 5 -224 8 -480 8 -548 0 -506 -9 -506 114 0 102 7 132 36
145 14 6 80 11 152 11 107 0 132 -3 162 -20 105 -58 117 -61 198 -55 89 6 190
20 196 26 2 2 7 227 10 499 4 272 10 533 14 579 11 117 12 116 -129 103 -69
-7 -137 -20 -174 -33 -53 -20 -84 -23 -264 -27 -163 -3 -205 -1 -212 10 -5 7
-9 64 -9 125 0 106 1 113 23 128 19 12 81 15 363 18 l341 3 59 61 c32 33 78
72 102 88 23 15 42 30 42 34 0 9 -240 122 -249 117 -4 -3 -43 -13 -87 -23 -63
-13 -130 -17 -329 -17 l-250 -1 -3 174 c-1 108 -7 180 -13 188 -16 18 -262 19
-277 1z m108 -1078 c0 -15 -81 -33 -92 -22 -6 6 -7 15 -4 20 8 13 96 14 96 2z
m-203 -26 c12 -15 13 -40 8 -119 -7 -118 -10 -131 -33 -140 -27 -10 -286 -17
-299 -8 -18 13 -22 245 -5 266 17 20 37 22 191 21 110 -1 125 -3 138 -20z
m743 17 c11 -8 13 -32 12 -117 -2 -60 -8 -120 -15 -134 -12 -25 -14 -25 -146
-28 -90 -2 -138 1 -147 9 -16 13 -20 224 -4 249 15 24 266 41 300 21z m1 -463
c17 -32 4 -227 -16 -248 -20 -20 -278 -28 -301 -10 -11 10 -14 39 -14 128 0
158 -6 152 176 152 137 0 144 -1 155 -22z m-777 2 c26 -9 26 -10 26 -129 0
-94 -3 -121 -15 -131 -17 -14 -272 -19 -293 -6 -8 5 -12 46 -12 126 0 152 -2
150 157 150 61 0 123 -4 137 -10z"/>
<path d="M5189 7283 c-60 -89 -314 -387 -345 -406 -8 -4 -138 -11 -291 -15
l-278 -7 -2 -925 c-2 -509 -7 -1152 -12 -1429 -6 -278 -7 -540 -4 -584 3 -43
1 -149 -5 -235 -7 -87 -16 -247 -21 -357 -7 -179 -10 -205 -31 -245 -76 -151
-160 -202 -280 -171 -19 5 -58 12 -85 15 -28 3 -64 10 -80 15 -17 5 -70 14
-120 21 -49 7 -106 16 -125 21 -63 16 -528 33 -570 20 -21 -6 -71 -11 -111
-11 -41 0 -132 -12 -204 -26 -71 -14 -143 -28 -160 -31 -62 -11 -274 -76 -365
-113 -52 -21 -120 -45 -150 -55 -30 -9 -65 -23 -77 -31 -26 -16 -39 -3 -22 23
13 21 45 45 154 115 219 140 416 387 528 665 20 50 37 95 37 101 0 6 17 68 38
139 42 140 55 193 71 295 6 38 16 96 21 130 14 84 30 285 30 380 0 42 4 99 9
125 5 26 14 80 21 118 15 84 45 202 62 242 20 47 78 135 126 190 24 29 42 58
39 65 -5 15 -72 50 -409 219 -130 66 -249 122 -265 125 -25 5 -31 1 -51 -35
-61 -107 -264 -358 -356 -440 -76 -67 -180 -135 -272 -177 -137 -64 -326 -60
-426 8 -39 27 -45 22 -13 -12 40 -42 136 -85 220 -99 58 -10 80 -9 128 4 32 8
67 15 78 15 30 0 175 53 284 105 157 74 188 86 196 78 13 -13 26 -342 24 -588
-2 -246 -22 -463 -65 -716 -15 -89 -86 -357 -119 -449 -133 -377 -370 -744
-697 -1080 -85 -87 -165 -181 -201 -235 -64 -95 -173 -303 -197 -376 -63 -189
-76 -273 -76 -476 0 -113 4 -181 12 -200 11 -24 13 -9 19 117 6 157 22 235 74
355 7 17 28 66 45 110 103 253 265 446 536 643 83 60 379 204 504 245 58 20
141 43 185 52 44 10 98 21 120 26 22 5 123 12 225 15 216 7 336 -6 563 -62
170 -42 202 -52 377 -116 227 -83 448 -187 625 -293 39 -23 100 -58 136 -78
37 -20 125 -78 197 -129 72 -51 160 -113 195 -138 36 -25 108 -80 160 -123 52
-42 99 -77 105 -77 5 0 36 53 69 118 53 104 118 201 291 437 58 79 293 334
379 411 256 230 403 344 567 441 61 36 123 74 139 85 29 20 35 38 15 38 -24 0
-158 -59 -201 -88 -23 -16 -89 -57 -145 -91 -109 -66 -141 -89 -260 -186 -41
-33 -92 -75 -115 -93 -23 -18 -49 -38 -57 -45 -24 -19 -186 -119 -278 -172
-91 -52 -80 -52 -164 -2 -20 12 -74 44 -120 72 -128 77 -415 215 -590 284 -73
29 -89 47 -60 67 112 78 299 280 356 386 50 91 87 200 106 313 20 120 30 554
30 1354 0 1027 10 1850 22 1875 7 13 17 17 38 12 44 -8 252 -114 280 -142 30
-29 25 83 42 -1014 13 -906 12 -1508 -4 -1560 -15 -49 -73 -134 -111 -163 -18
-13 -60 -39 -94 -57 -35 -17 -63 -33 -63 -35 0 -1 17 -14 38 -28 92 -62 210
-198 277 -322 23 -43 47 -81 53 -83 12 -4 239 236 331 351 75 93 111 160 129
242 20 88 34 267 28 365 -7 111 -20 1734 -17 2050 3 242 15 322 62 418 34 70
129 170 215 227 30 20 54 40 54 46 0 11 5 12 -82 -6 -123 -26 -243 -30 -323
-10 -146 37 -277 114 -384 227 -36 37 -68 68 -72 68 -5 0 -23 -21 -40 -47z
m-827 -1015 c9 -24 3 -71 -9 -75 -15 -5 -25 29 -17 61 7 28 19 34 26 14z
m-1802 -869 c-16 -15 -30 -34 -30 -40 0 -10 -3 -10 -11 -2 -25 25 31 104 58
81 11 -9 9 -16 -17 -39z m-390 -142 c0 -20 -25 1 -28 24 -2 23 -2 23 13 5 8
-11 15 -24 15 -29z m3094 -579 c3 -16 3 -28 -2 -28 -17 0 -32 25 -32 54 0 26
2 28 14 16 7 -8 16 -27 20 -42z m-590 -174 c4 -9 5 -18 4 -18 -9 -5 -60 -26
-63 -26 -2 0 -3 13 -2 30 2 25 6 30 28 30 16 0 30 -7 33 -16z m-2434 -1005 c0
-5 -9 -9 -20 -9 -11 0 -20 6 -20 14 0 9 7 12 20 9 11 -3 20 -9 20 -14z m2188
-361 c19 -19 14 -30 -8 -18 -11 6 -20 15 -20 20 0 14 14 12 28 -2z m-64 -41
c12 -34 1 -45 -22 -24 -10 10 -28 17 -39 17 -29 0 -35 11 -17 31 22 24 66 11
78 -24z m-206 -409 c-7 -19 -38 -22 -38 -4 0 10 9 16 21 16 12 0 19 -5 17 -12z
m783 -871 c-1 -12 -15 -9 -19 4 -3 6 1 10 8 8 6 -3 11 -8 11 -12z"/>
<path d="M9940 7303 c-41 -7 -124 -22 -185 -33 -142 -26 -400 -57 -540 -65
l-110 -7 -23 47 -23 48 -57 -8 c-31 -4 -87 -10 -124 -14 -37 -4 -72 -11 -78
-17 -7 -7 -8 -114 -2 -330 9 -347 7 -376 -43 -475 -14 -28 -59 -85 -100 -128
-105 -110 -101 -121 31 -96 224 42 443 167 474 270 7 23 14 124 16 234 2 120
8 199 14 205 12 12 283 21 336 11 59 -11 65 -31 73 -248 6 -185 8 -195 33
-238 50 -85 132 -119 288 -119 44 0 80 -4 80 -10 0 -18 -62 -116 -98 -152
l-36 -38 -546 0 c-325 0 -551 -4 -560 -10 -13 -8 -13 -16 4 -62 10 -29 36 -91
57 -137 l39 -84 52 7 c131 18 819 27 825 11 4 -12 -42 -74 -143 -195 -105
-126 -81 -120 -251 -61 -245 87 -302 102 -400 108 -67 4 -93 3 -93 -6 0 -6 6
-11 14 -11 7 0 45 -16 84 -36 60 -30 91 -56 194 -165 68 -72 124 -134 126
-138 8 -23 -141 -153 -257 -225 -192 -119 -481 -229 -718 -272 -41 -8 -24 -24
23 -24 80 0 438 44 529 66 33 7 74 14 91 14 52 0 336 86 412 124 40 20 97 52
128 72 67 43 67 43 182 -44 100 -76 210 -147 285 -183 32 -15 64 -32 71 -37
31 -24 299 -122 371 -137 28 -5 32 -3 44 31 17 47 73 108 128 141 36 21 57 25
117 26 64 0 80 -4 129 -32 108 -61 141 -122 141 -261 0 -89 -2 -99 -34 -158
-40 -76 -93 -125 -179 -164 -44 -21 -60 -33 -53 -40 7 -7 26 -7 64 2 189 45
298 197 298 420 0 168 -80 300 -237 391 -59 34 -250 98 -396 134 -287 69 -537
159 -537 194 0 16 31 49 327 346 155 156 161 161 238 190 48 18 81 36 83 46 2
11 -30 33 -103 73 -59 32 -134 79 -168 105 -122 92 -205 180 -169 181 50 1
206 24 281 41 85 19 118 31 196 72 11 6 30 16 43 23 35 18 142 103 142 112 0
8 -51 76 -148 195 -26 32 -51 67 -56 77 -13 28 -28 25 -89 -14 -101 -65 -174
-90 -259 -90 -134 1 -148 34 -148 345 0 156 -3 208 -12 211 -7 3 -47 -1 -88
-9z m73 -347 c6 -16 -2 -28 -14 -20 -12 7 -11 34 0 34 5 0 11 -6 14 -14z
m-255 -27 c-2 -6 -8 -10 -13 -10 -5 0 -11 4 -13 10 -2 6 4 11 13 11 9 0 15 -5
13 -11z m306 -1170 c-8 -13 -24 -1 -24 18 0 13 3 13 15 3 8 -7 12 -16 9 -21z
m-127 -546 c-9 -9 -19 -14 -23 -11 -10 10 6 28 24 28 15 0 15 -1 -1 -17z"/>
<path d="M13209 6704 c-40 -36 -103 -79 -139 -97 l-65 -31 -595 -7 c-527 -6
-751 -13 -1260 -37 l-135 -7 0 -75 c0 -86 23 -449 32 -497 3 -18 10 -33 15
-33 5 0 42 22 81 49 107 72 132 85 252 131 61 23 124 47 140 54 168 72 552
133 985 157 187 10 264 7 275 -11 3 -5 -14 -33 -38 -62 -23 -29 -78 -100 -122
-158 -44 -58 -98 -127 -121 -155 -70 -85 -250 -340 -557 -791 -164 -241 -274
-399 -362 -524 -44 -62 -151 -219 -238 -349 -148 -220 -277 -406 -373 -540
-87 -121 -302 -441 -438 -654 -141 -218 -449 -677 -528 -784 -84 -115 -383
-376 -626 -546 -195 -136 -526 -340 -737 -452 -128 -69 -478 -220 -625 -271
-69 -23 -133 -48 -142 -53 -26 -16 -153 -41 -243 -48 -44 -3 -89 -12 -100 -19
-29 -19 -237 -33 -415 -29 -228 5 -352 18 -570 61 -108 21 -315 85 -415 129
-16 7 -68 27 -115 45 -47 18 -92 39 -100 46 -9 7 -36 23 -60 34 -51 24 -142
79 -150 90 -3 4 -16 13 -30 20 -58 31 -207 166 -303 275 -39 44 -75 82 -80 84
-4 2 1 -15 12 -37 23 -45 154 -190 228 -253 26 -22 61 -52 77 -65 16 -14 50
-37 75 -51 25 -15 64 -41 86 -58 81 -65 348 -187 535 -244 58 -17 119 -36 137
-42 38 -12 156 -36 241 -49 34 -6 81 -14 105 -19 136 -30 630 -37 800 -11 228
34 582 132 787 217 430 177 1090 551 1613 914 259 179 799 598 939 727 38 35
72 60 77 57 5 -3 22 -42 37 -88 36 -109 54 -144 103 -194 79 -81 143 -101 391
-118 367 -27 2230 -16 2485 14 71 9 126 26 204 64 45 22 65 89 64 212 -2 126
-23 210 -79 311 -64 115 -203 219 -282 212 l-37 -4 28 -12 c44 -19 147 -122
173 -174 31 -61 31 -112 0 -153 -32 -42 -81 -55 -202 -55 -91 0 -104 2 -163
32 -36 18 -93 58 -126 90 -53 49 -66 69 -91 135 -27 74 -28 86 -29 248 0 279
18 417 96 749 79 333 95 461 63 497 -22 25 -60 24 -74 0 -5 -11 -10 -37 -10
-58 0 -35 -13 -111 -39 -239 -9 -46 -149 -484 -207 -648 -23 -63 -54 -138
-105 -252 -10 -22 -28 -65 -39 -95 -43 -107 -125 -218 -185 -246 -21 -10 -165
-43 -271 -62 -123 -22 -1170 -8 -1369 19 -89 11 -166 29 -178 40 -5 4 8 34 29
66 21 33 58 91 82 129 99 155 640 959 696 1035 23 30 50 68 61 84 64 94 108
156 175 248 88 122 378 502 464 608 34 41 81 103 106 138 105 148 259 315 515
562 97 92 224 189 343 261 56 34 105 66 108 71 4 6 -27 44 -68 87 -116 118
-193 218 -323 418 -33 51 -65 94 -71 97 -6 2 -44 -25 -85 -60z m-1418 -2267
c-1 -12 -15 -9 -19 4 -3 6 1 10 8 8 6 -3 11 -8 11 -12z"/>
<path d="M18319 6045 c-160 -93 -372 -159 -589 -184 -74 -8 -274 -17 -477 -21
-24 0 -12 -25 62 -125 107 -144 137 -190 186 -285 24 -47 56 -105 71 -129 15
-25 28 -53 28 -63 0 -11 7 -18 19 -18 13 0 30 21 56 67 75 136 251 332 415
461 158 124 320 292 320 331 0 17 -10 13 -91 -34z"/>
<path d="M1050 5994 c-48 -21 -78 -51 -107 -108 -45 -88 -55 -135 -59 -279 -3
-131 -2 -142 23 -205 40 -101 136 -189 248 -227 77 -26 200 -20 305 16 50 17
136 79 155 111 19 33 6 37 -21 6 -10 -11 -50 -36 -89 -53 -263 -122 -510 -23
-575 231 -17 64 -18 87 -10 152 18 138 36 186 89 245 21 23 33 27 76 27 77 0
113 49 63 84 -28 20 -53 20 -98 0z"/>
<path d="M17260 5245 c0 -8 7 -15 15 -15 8 0 15 7 15 15 0 8 -7 15 -15 15 -8
0 -15 -7 -15 -15z"/>
<path d="M9435 4843 c-83 -35 -318 -109 -428 -134 -51 -12 -180 -44 -287 -71
-107 -27 -249 -63 -315 -79 -66 -17 -178 -41 -250 -54 -71 -13 -161 -31 -200
-40 -99 -22 -561 -94 -735 -115 -61 -7 -211 -28 -360 -50 -36 -5 -119 -14
-185 -20 -532 -46 -619 -58 -692 -92 -48 -23 -46 -44 3 -29 96 30 177 34 492
26 174 -5 349 -10 387 -12 39 -2 149 -7 245 -12 254 -12 639 -4 900 20 152 14
176 11 171 -16 -2 -11 -6 -63 -10 -115 -9 -138 -4 -133 -163 -141 -176 -8
-912 0 -1009 10 -51 6 -97 19 -141 40 -67 31 -88 37 -88 23 0 -4 9 -39 20 -77
37 -125 60 -219 60 -246 0 -15 6 -31 13 -36 7 -6 83 -7 202 -2 304 12 1061 12
1085 -1 18 -9 20 -21 20 -99 0 -108 -7 -148 -29 -156 -28 -11 -1430 -6 -1501
6 -36 6 -106 25 -157 42 -50 17 -95 28 -99 24 -4 -4 20 -48 55 -98 78 -115 84
-148 46 -249 -17 -44 -24 -75 -18 -81 6 -6 48 2 109 20 234 70 465 84 1356 82
201 -1 218 -2 227 -20 22 -40 8 -326 -19 -419 -28 -90 -123 -142 -265 -142
-83 0 -378 31 -473 49 -60 12 -136 43 -146 60 -13 21 -36 12 -36 -14 0 -71 69
-126 187 -150 200 -41 274 -67 370 -128 128 -83 229 -190 288 -307 15 -30 29
-57 31 -59 2 -2 32 8 66 22 242 97 407 208 459 309 44 85 78 328 86 606 6 185
7 193 27 198 12 3 325 3 696 2 610 -3 684 -6 764 -22 l89 -19 45 49 c25 27 65
71 90 97 43 46 44 48 26 62 -32 25 -177 93 -214 100 -19 4 -50 12 -67 18 -27
9 -47 7 -110 -10 -118 -33 -135 -34 -582 -32 -637 2 -715 3 -728 12 -19 12
-18 220 1 236 10 8 218 13 752 18 876 7 760 7 866 -2 102 -9 131 2 142 56 5
29 1 38 -31 72 -21 22 -75 71 -121 109 -46 39 -106 100 -134 138 l-50 67 -88
-39 c-209 -92 -579 -143 -1060 -147 -147 -1 -271 3 -279 8 -15 10 -16 21 -13
218 l2 141 33 11 c17 6 75 17 127 26 52 8 146 24 209 35 263 46 508 69 646 60
207 -15 253 -13 265 10 15 29 -25 69 -208 209 -86 65 -190 153 -231 195 -40
42 -74 76 -75 75 0 0 -28 -12 -61 -26z m72 -189 c2 -6 -9 -14 -25 -17 -19 -4
-31 -14 -35 -27 -3 -12 -10 -19 -16 -15 -17 10 -13 24 14 51 25 25 55 29 62 8z
m-1351 -269 c7 -29 1 -41 -15 -30 -14 8 -14 55 -1 55 5 0 12 -11 16 -25z
m-256 -585 c0 -11 -4 -20 -10 -20 -5 0 -10 9 -10 20 0 11 5 20 10 20 6 0 10
-9 10 -20z m334 -26 c9 -25 7 -34 -8 -34 -19 0 -29 17 -22 35 7 20 22 19 30
-1z m-470 0 c18 -7 12 -24 -10 -24 -8 0 -14 7 -14 15 0 17 2 18 24 9z m816
-1218 c0 -16 -28 -42 -36 -33 -8 7 14 47 26 47 6 0 10 -6 10 -14z m-385 -64
c9 -24 -9 -33 -43 -21 -36 12 -36 13 -22 39 9 16 14 18 35 8 13 -6 27 -18 30
-26z m25 -67 c0 -8 -4 -15 -10 -15 -5 0 -10 7 -10 15 0 8 5 15 10 15 6 0 10
-7 10 -15z"/>
</g>
</svg>
