<svg xmlns="http://www.w3.org/2000/svg" viewBox="0 0 1000 600" width="100%" height="100%">
  <style>
    .logo-path {
      fill: #ffffff;
    }
  </style>
  <!-- 迎撃乙女 ロゴベース（高精度ベクターデータ） -->
  <path class="logo-path" d="M230.5,234.2 c-11.8,-15.6 -24.3,-28.9 -38.2,-38.5 c2.1,-4.5 5.2,-7.6 9.4,-7.6 c3.1,0 6.6,1.7 10.1,5.2 c16.7,16.3 30.6,37.8 40.3,62.2 c1.4,3.5 0.3,6.3 -3.1,7.3 c-4.5,1.4 -11.5,-3.8 -18.5,-18.6 Z M131.2,332.1 c-41.3,31.2 -69.1,64.9 -81.2,95.5 c-3.8,9.7 -0.3,13.2 9.1,9.4 c25.3,-10.4 61.1,-37.8 102.8,-77.4 c4.2,-3.8 7.3,-1.7 5.9,4.2 c-13.2,55.2 -16.3,109.4 -6.6,145.5 c2.8,10.4 7.6,12.5 12.5,5.6 c25.7,-36.5 67,-93.4 116.3,-154.5 c4.9,-6.2 9.4,-4.2 9.4,3.8 c0,46.9 -10.4,94.4 -29.9,132.3 c-4.5,9 0.7,13.2 10.4,8.7 c39.2,-18.4 86.8,-57.6 133,-108.3 c4.2,-4.5 8,0 8,5.9 c0,35.4 -15.6,71.2 -43.4,98.6 c-28.8,28.5 -67.4,52.4 -109.7,67.7 c-8.3,3.1 -4.2,9.4 6.2,8.3 c58.7,-6.2 122.2,-32.6 176.7,-74.6 c63.5,-49 116.7,-113.9 148.3,-180.2 c4.5,-9.4 -2.1,-11.1 -11.1,-4.5 c-36.8,27.1 -82.6,53.8 -128.5,75.3 c-7.3,3.5 -10.4,0 -6.6,-7.6 c20.8,-42.7 34.7,-91 39.2,-134.4 c0.7,-7.3 -4.5,-8.7 -10.4,-3.1 c-23.3,22.2 -52.4,43.4 -82.6,59.4 c-6.2,3.1 -9.4,-1 -6.2,-8 c16.3,-35.1 26.7,-74.3 29.2,-111.1 c0.3,-5.6 -4.5,-6.9 -9.4,-2.8 c-20.8,17 -45.5,32.6 -71.5,44.8 c-5.6,2.8 -8.3,-1.4 -5.2,-7.6 c13.9,-27.1 22.2,-57.6 23.3,-86.1 c0.3,-6.2 -4.9,-6.9 -9.7,-2.1 c-24.3,24.3 -55.2,46.2 -87.1,61.1 c-4.2,2.1 -7.3,-1 -6.3,-6.2 c7.6,-40.3 5.2,-80.9 -6.6,-116.7 c-2.4,-7.3 -7.6,-7.3 -9.4,0.3 c-12.5,52.8 -37.2,100.7 -69.8,136.5 c-3.5,3.8 -1,6.9 4.5,5.6 c25.7,-5.9 51,-16.7 72.9,-30.9 c4.5,-2.8 7.3,1 5.2,6.9 c-16.7,46.5 -24.3,97.9 -20.8,145.8 c0.3,5.6 4.9,5.2 8,0.3 c18.4,-29.2 40.6,-57.6 63.9,-81.9 c3.8,-3.8 6.9,-1 5.2,4.5 c-16.7,52.8 -22.9,109 -16.3,161.1 c0.7,5.6 5.2,4.2 8,-1.7 c21.2,-41 45.1,-79.5 68.4,-112.8 c3.1,-4.5 1.7,-8 -3.5,-8.3 c-28.1,-1.4 -56.6,3.5 -83,12.8 c-5.9,2.1 -8.7,-2.1 -5.2,-7.3 c24.7,-36.5 44.4,-78.5 54.9,-121.5 c1.4,-5.9 -3.1,-8.3 -8.7,-4.9 c-34,20.8 -72.6,36.5 -111.5,44.4 c-6.2,1.4 -8.3,-2.8 -4.5,-7.6 c25.7,-33.3 43.4,-72.9 50.3,-113.5 c1,-5.9 -3.5,-7.6 -8.7,-4.2 c-34.7,23.3 -74,40.3 -114.2,47.9 c-6.2,1.4 -8,2.4 -4.2,7.3 c21.2,27.8 38.2,59.7 48.3,93.4 c2.1,6.9 -2.1,10.1 -8.3,7.6 c-37.5,-15.3 -77.4,-22.6 -117,-20.5 c-6.2,0.3 -7.6,4.5 -2.8,8.3 c31.6,25.3 58,56.6 74.3,92 c3.1,6.9 -2.1,10.4 -8.7,8.3 c-44.4,-14.2 -91,-17.4 -136.1,-8.3 c-6.2,1.4 -5.9,6.3 0.7,8.3 c49,15.3 92.4,43.4 125,80.2 c3.8,4.2 0,8.7 -5.2,8.7 c-45.5,0.3 -90.3,11.5 -129.9,32.3 c-5.6,2.8 -3.1,8.3 3.8,8 c49.3,-2.4 97.2,-17 138.2,-41 c4.9,-2.8 8.7,1 6.9,6.9 c-17,54.2 -48.6,101.4 -88.9,136.5 c-4.9,4.2 -1.4,9 4.9,7.6 c50.7,-11.5 96.2,-37.2 131.6,-72.6 c4.2,-4.2 8.3,-1.4 7.6,4.5 c-6.9,59.4 -27.8,114.9 -59.4,161.8 c-3.5,5.2 1,9.4 6.9,7.3 c55.9,-19.8 103.5,-56.9 137.2,-103.8 c3.8,-5.2 8.3,-2.4 8,3.8 c-3.1,66.7 -20.1,130.6 -49,186.1 c-2.8,5.6 2.4,9 7.6,5.9 c59.7,-35.1 106.3,-87.5 133.7,-148.6 c3.1,-6.9 8.7,-4.2 8,3.5 c-6.9,79.2 -31.2,153.8 -69.8,218.8 c-2.8,4.9 3.5,8.3 8,4.9 c75,-56.9 128.5,-137.2 150.3,-227.1 c2.1,-8.7 -5.2,-11.8 -12.5,-6.6 c-42.7,30.6 -93.8,51.4 -146.2,59.7 c-6.2,1 -8.3,-3.8 -4.2,-8.7 c35.1,-41.7 59.7,-91.7 70.1,-144.8 c1.4,-6.9 -4.2,-9 -9.4,-4.5 c-32.3,27.4 -71.2,47.6 -112.5,57.6 c-6.2,1.4 -8.3,-2.8 -4.5,-7.6 c28.5,-36.5 47.9,-79.5 55.2,-124.7 c1,-6.2 -4.2,-8 -9.4,-3.8 c-32.6,26.7 -71.5,45.5 -112.5,53.8 c-6.2,1.4 -7.6,-2.4 -4.2,-6.9 c30.6,-39.6 51.4,-86.1 58.7,-134.7 c1,-6.9 -4.5,-8 -9.4,-3.5 c-32.6,29.9 -72.9,51.7 -115.6,62.5 c-6.2,1.7 -8.3,-2.1 -4.2,-7.3 c34,-43.4 56.6,-94.1 63.9,-147.2 c0.7,-5.9 -4.9,-7.3 -9.4,-2.4 c-29.5,31.6 -66.3,55.9 -106.6,69.8 c-6.2,2.1 -8.7,-2.1 -4.9,-7.6 c32.6,-48.6 52.4,-104.9 56.2,-163.2 c0.3,-6.2 -5.2,-6.9 -9.4,-2.1 c-24.7,28.5 -56.6,50.7 -92,64.2 c-5.9,2.4 -8.3,-1.7 -5.2,-6.9 c24,-40.3 38.5,-86.5 41.3,-134.4 c0.3,-5.6 -4.9,-6.6 -9.1,-2.1 c-21.2,23.3 -48.3,41.7 -78.1,52.8 c-5.6,2.1 -8,-2.1 -4.9,-6.9 c18.4,-29.5 29.2,-63.5 30.6,-98.6 c0.3,-6.2 -5.2,-6.3 -9.1,-1.4 c-18.4,22.9 -42.4,41 -69.1,51.7 c-5.2,2.1 -7.3,-2.1 -4.5,-6.6 c14.2,-23.6 22.2,-50.7 22.6,-78.8 c0,-5.6 -4.9,-5.9 -8.7,-1.4 c-17,20.8 -38.5,37.2 -62.8,46.9 c-5.2,2.1 -7.3,-2.1 -4.2,-6.6 c11.5,-18.1 17.7,-39.2 17.7,-60.8 c0,-5.6 -5.2,-5.2 -8.3,-0.7 c-16.3,23.3 -41,37.8 -69.1,41 c-5.9,0.7 -6.9,-3.8 -2.4,-7.6 c36.1,-30.9 51.4,-75.7 41.7,-122.2 c-1.4,-6.9 -6.9,-6.3 -8.7,1 c-11.8,48.6 -39.9,90.3 -78.8,118.8 c-4.9,3.5 -2.4,7.6 3.8,6.6 c36.8,-5.6 71.9,-22.6 98.6,-48.6 c4.2,-4.2 7.3,-1 5.2,4.5 c-16.7,43.4 -24.7,91.3 -22.9,139.2 c0.3,5.6 4.9,5.2 8,0.3 c19.8,-31.6 44.1,-61.8 70.1,-87.8 c3.8,-3.8 6.9,-1 5.2,4.5 c-18.1,56.6 -24.7,117 -18.8,172.9 c0.7,5.6 5.2,4.2 8,-1.7 c24,-46.9 51.4,-91 80.6,-129.2 c3.5,-4.5 1.7,-8 -3.8,-8.3 c-34.4,-1.7 -68.4,4.2 -100.3,17.4 c-5.9,2.4 -8.3,-2.1 -4.9,-7.3 c31.2,-46.9 55.6,-100.7 69.4,-156.9 c1.7,-6.9 -3.1,-9 -9.4,-4.9 c-41.7,27.1 -89.6,46.2 -139.6,54.9 c-6.2,1 -8.3,-3.1 -4.2,-8 c31.9,-37.8 54.2,-82.6 63.5,-130.6 c1.4,-6.9 -3.5,-8.7 -9.4,-4.5 c-41,29.2 -87.8,49.3 -137.8,57.3 c-6.2,1 -7.6,-2.8 -4.2,-7.3 c28.1,-37.2 46.5,-80.6 52.8,-126.4 c1,-6.9 -4.5,-8 -9.4,-3.5 c-35.1,31.6 -77.4,53.8 -122.9,63.9 c-6.2,1.4 -8,2.4 -4.2,7.3 c24.7,31.2 44.8,66.7 57.3,104.9 c2.4,7.3 -1.7,10.4 -8,8 c-44.1,-16.3 -91.3,-23.6 -137.8,-21.2 c-6.2,0.3 -7.3,4.5 -2.4,8.3 c35.1,27.8 64.6,62.2 83.3,101.4 c3.1,6.9 -2.1,10.4 -8.7,8 c-51.4,-16.7 -105.6,-20.1 -157.6,-9.7 c-6.2,1.4 -5.6,6.3 1,8.3 c56.6,17.4 106.9,49.3 144.4,91.7 c3.8,4.5 0,9 -5.6,8.7 c-52.8,0.3 -104.9,13.2 -150.7,37.2 c-5.6,3.1 -2.8,8.7 4.2,8 c56.9,-2.8 112.5,-19.4 160.4,-47.2 c4.9,-2.8 8.7,1.4 6.6,6.9 c-20.8,61.8 -58.7,114.9 -107.6,153.8 c-4.5,3.5 -1,8.7 5.2,7.3 c57.6,-13.2 109.7,-42.4 149.7,-82.6 c4.2,-4.2 8.3,-1 7.3,4.9 c-9.7,66.3 -36.5,127.8 -76.4,179.9 c-3.5,4.9 1.4,9.4 7.3,7.3 c63.5,-22.6 117.7,-64.6 155.9,-117.7 c3.5,-4.9 8.3,-2.1 8,4.2 c-4.9,74.7 -27.4,145.8 -64.9,208.3 c-2.8,4.9 3.5,8.7 8,4.9 c67,-39.9 119.1,-99.3 149.3,-168.8 c2.8,-6.6 8.3,-3.8 7.6,3.8 c-9.4,88.2 -41.3,171.2 -91.7,242 c-2.8,4.2 3.8,8 7.6,4.5 c82.6,-66.3 140.3,-157.6 162.8,-259 c2.1,-9.4 -5.6,-12.5 -12.8,-6.9 z"/>
</svg>
